# xmcd CD database file
#
# Track frame offsets:
#	150
#	13418
#	26139
#	38634
#	49792
#	61266
#	73136
#	86858
#	97836
#	108146
#
# Disc length: 1602 seconds
#
# Revision: 1
# Processed by: cddbd v1.4PL0 Copyright (c) Steve Scherf et al.
# Submitted via: CDex 1.50beta10
#
DISCID=8006400a
DTITLE=Ray Charles - The Genius Of Ray Charles
DYEAR=1900
DGENRE=Blues
TTITLE0=Alone In The City
TTITLE1=Can Anyone Ask For More
TTITLE2=Rocking Chair Blues
TTITLE3=Let's Have A Ball
TTITLE4=If I Give You My Love
TTITLE5=Can't You See Darling
TTITLE6=This Love Of Mine
TTITLE7=A Sentimental Blues
TTITLE8=Now She's Gone
TTITLE9=Going Down Slow
EXTD=
EXTT0=
EXTT1=
EXTT2=
EXTT3=
EXTT4=
EXTT5=
EXTT6=
EXTT7=
EXTT8=
EXTT9=
PLAYORDER=
